# xmcd CD database file
#
# Track frame offsets:
#	182
#	18207
#	36007
#	51457
#	59230
#	66602
#	85875
#	102297
#	122640
#	132142
#	136140
#	155490
#	178607
#	183302
#	190517
#	206202
#	232460
#	240367
#
# Disc length: 3287 seconds
#
# Revision: 0
# Processed by: cddbd v1.5.2PL0 Copyright (c) Steve Scherf et al.
# Submitted via: CDex 1.70beta2
#
DISCID=070cd512
DTITLE=The Recyclers - Rhymes
DYEAR=1994
DGENRE=Jazz
TTITLE0=May 20th
TTITLE1=Magmas
TTITLE2=Suguxhama
TTITLE3=Postcard From Castillonia
TTITLE4=Postcard From Khalanhi
TTITLE5=Four Words
TTITLE6=Spokes and Spirals
TTITLE7=Togo
TTITLE8=Postcard From L'echoppe Rue De La Jonquiere
TTITLE9=Postcard From Eviasham
TTITLE10=Brushes
TTITLE11=Dizzy Dancing
TTITLE12=Postcard From Gazellan
TTITLE13=Postcard From Bugtac
TTITLE14=212
TTITLE15=Toy Box
TTITLE16=Postcard From Lobrianic
TTITLE17=Postcard From Azeldjiangs
EXTD=YEAR: 1994
EXTT0=
EXTT1=
EXTT2=
EXTT3=
EXTT4=
EXTT5=
EXTT6=
EXTT7=
EXTT8=
EXTT9=
EXTT10=
EXTT11=
EXTT12=
EXTT13=
EXTT14=
EXTT15=
EXTT16=
EXTT17=
PLAYORDER=
